# xmcd CD database file
#
# Track frame offsets:
#	150
#	62291
#	84079
#	107988
#	137309
#	168450
#	193976
#
# Disc length: 3062 seconds
#
# Revision: 0
# Processed by: cddbd v1.5.1PL0 Copyright (c) Steve Scherf et al.
# Submitted via: CDex 1.51
#
DISCID=520bf407
DTITLE=Roy Hargrove and The RH Factor - 36. Internationale Jazzwoche Burghausen 2005 (1|2)
DYEAR=2005
DGENRE=Jazz
TTITLE0=Roy Hargrove and The RH Factor - Intro .. Rich Man's Welfare
TTITLE1=Roy Hargrove and The RH Factor - Strength
TTITLE2=Roy Hargrove and The RH Factor - Quiet .. December
TTITLE3=Roy Hargrove and The RH Factor - 4Get Regret
TTITLE4=Roy Hargrove and The RH Factor - Joosey
TTITLE5=Roy Hargrove and The RH Factor - How I Know
TTITLE6=Roy Hargrove and The RH Factor - We Want The Funk
EXTD=YEAR: 2005
EXTT0=
EXTT1=
EXTT2=
EXTT3=
EXTT4=
EXTT5=
EXTT6=
PLAYORDER=
